C:\Users\israe\Dropbox\PhDWork\ExperimentalData\subject14\145\P14S145W02_filtered35.mot
nRows=10
nColumns=28

name C:\Users\israe\Dropbox\PhDWork\ExperimentalData\subject14\145\P14S145W02_filtered35.mot
datacolumns 28
datarows 10
range 1.0750000000 1.0840000000
endheader
time	ground_force_1_vx	ground_force_1_vy	ground_force_1_vz	ground_force_1_px	ground_force_1_py	ground_force_1_pz	ground_moment_1_mx	ground_moment_1_my	ground_moment_1_mz	ground_force_2_vx	ground_force_2_vy	ground_force_2_vz	ground_force_2_px	ground_force_2_py	ground_force_2_pz	ground_moment_2_mx	ground_moment_2_my	ground_moment_2_mz	ground_force_3_vx	ground_force_3_vy	ground_force_3_vz	ground_force_3_px	ground_force_3_py	ground_force_3_pz	ground_moment_3_mx	ground_moment_3_my	ground_moment_3_mz
        1.0750000000	       62.2469800714	      695.8447303638	      117.7518278687	        0.1988394961	        0.0000558755	       -0.3004071324	      113.1168671829	      -16.1380227255	       38.7817847833	       -8.3389183336	      542.6180017580	     -187.0468781019	        0.2029003516	       -0.0000795827	        0.4543649445	      111.2897652165	       -6.9326483848	      -19.7519905974	       -0.0000000000	        0.0000000000	       -0.0000000000	        0.2076431971	        0.0000770316	        1.3583900146	       -0.0000000000	        0.0000000000	       -0.0000000000	
        1.0760000000	       61.4162727606	      703.6798825601	      133.5392136890	        0.1988394961	        0.0000558755	       -0.3004071324	      115.3937282244	      -16.9621200685	       39.2729065619	       -8.5386298477	      529.3538299414	     -184.4999154360	        0.2029003516	       -0.0000795827	        0.4543649445	      108.8515906152	       -6.7100303325	      -19.2349207758	       -0.0000000000	        0.0000000000	        0.0000000000	        0.2076431971	        0.0000770316	        1.3583900146	       -0.0000000000	       -0.0000000000	       -0.0000000000	
        1.0770000000	       60.2104528524	      710.4653083152	      148.2517487551	        0.1988394961	        0.0000558755	       -0.3004071324	      117.5252923165	      -17.6790260716	       39.7341636019	       -8.6914350976	      515.8055507550	     -181.6806752081	        0.2029003516	       -0.0000795827	        0.4543649445	      106.3673671305	       -6.4852949104	      -18.7100298052	        0.0000000000	        0.0000000000	        0.0000000000	        0.2076431971	        0.0000770316	        1.3583900146	       -0.0000000000	       -0.0000000000	       -0.0000000000	
        1.0780000000	       58.8016885066	      716.7447709134	      161.5431304198	        0.1988394961	        0.0000558755	       -0.3004071324	      119.5825805175	      -18.2955534112	       40.1912591294	       -8.7961138984	      502.0061943254	     -178.5828460169	        0.2029003516	       -0.0000795827	        0.4543649445	      103.8441457865	       -6.2580326896	      -18.1785250618	        0.0000000000	        0.0000000000	        0.0000000000	        0.2076431971	        0.0000770316	        1.3583900146	       -0.0000000000	       -0.0000000000	       -0.0000000000	
        1.0790000000	       57.3424097649	      722.9279895323	      173.1430658516	        0.1988394961	        0.0000558755	       -0.3004071324	      121.6173936138	      -18.8202320879	       40.6621813742	       -8.8521034985	      487.9956411285	     -175.2001866024	        0.2029003516	       -0.0000795827	        0.4543649445	      101.2894163650	       -6.0276793668	      -17.6421475744	        0.0000000000	        0.0000000000	        0.0000000000	        0.2076431971	        0.0000770316	        1.3583900146	       -0.0000000000	       -0.0000000000	       -0.0000000000	
        1.0800000000	       55.9531287637	      729.2857223891	      182.8724263942	        0.1988394961	        0.0000558755	       -0.3004071324	      123.6620504657	      -19.2618322002	       41.1579046319	       -8.8597091675	      473.8201919765	     -171.5265583548	        0.2029003516	       -0.0000795827	        0.4543649445	       98.7110960501	       -5.7936685829	      -17.1030021273	        0.0000000000	        0.0000000000	        0.0000000000	        0.2076431971	        0.0000770316	        1.3583900146	       -0.0000000000	       -0.0000000000	       -0.0000000000	
        1.0810000000	       54.7168952539	      735.9611529822	      190.6489504031	        0.1988394961	        0.0000558755	       -0.3004071324	      125.7312731250	      -19.6287591287	       41.6835273814	       -8.8191886389	      459.5300122817	     -167.5594020630	        0.2029003516	       -0.0000795827	        0.4543649445	       96.1173481439	       -5.5555291499	      -16.5634255322	        0.0000000000	        0.0000000000	        0.0000000000	        0.2076431971	        0.0000770316	        1.3583900146	       -0.0000000000	       -0.0000000000	       -0.0000000000	
        1.0820000000	       53.6779395053	      742.9930377456	      196.4869327193	        0.1988394961	        0.0000558755	       -0.3004071324	      127.8257538635	      -19.9284655847	       42.2395410078	       -8.7314778934	      445.1761097680	     -163.3020673379	        0.2029003516	       -0.0000795827	        0.4543649445	       93.5166478639	       -5.3129559350	      -16.0259347050	        0.0000000000	        0.0000000000	        0.0000000000	        0.2076431971	        0.0000770316	        1.3583900146	       -0.0000000000	       -0.0000000000	       -0.0000000000	
        1.0830000000	       52.8420037272	      750.3449873613	      200.4933480110	        0.1988394961	        0.0000558755	       -0.3004071324	      129.9366727343	      -20.1672911427	       42.8232754933	       -8.5997175508	      430.8109219155	     -158.7629311081	        0.2029003516	       -0.0000795827	        0.4543649445	       90.9179847728	       -5.0658434869	      -15.4930875913	        0.0000000000	        0.0000000000	        0.0000000000	        0.2076431971	        0.0000770316	        1.3583900146	       -0.0000000000	       -0.0000000000	       -0.0000000000	
        1.0840000000	       52.1798920737	      757.9340512309	      202.8546462068	        0.1988394961	        0.0000558755	       -0.3004071324	      132.0497464066	      -20.3505531086	       43.4302055257	       -8.4295034215	      416.4897833737	     -153.9551022679	        0.2029003516	       -0.0000795827	        0.4543649445	       88.3306417264	       -4.8142915669	      -14.9672657029	        0.0000000000	        0.0000000000	        0.0000000000	        0.2076431971	        0.0000770316	        1.3583900146	       -0.0000000000	       -0.0000000000	       -0.0000000000	
